<!DOCTYPE svg PUBLIC "-//W3C//DTD SVG 1.1//EN" "http://www.w3.org/Graphics/SVG/1.1/DTD/svg11.dtd">
<!-- Uploaded to: SVG Repo, www.svgrepo.com, Transformed by: SVG Repo Mixer Tools -->
<svg fill="#396f56" height="800px" width="800px" version="1.1" id="Layer_1" xmlns="http://www.w3.org/2000/svg" xmlns:xlink="http://www.w3.org/1999/xlink" viewBox="0 0 459.067 459.067" xml:space="preserve">
<g id="SVGRepo_bgCarrier" stroke-width="0"/>
<g id="SVGRepo_tracerCarrier" stroke-linecap="round" stroke-linejoin="round"/>
<g id="SVGRepo_iconCarrier"> <g> <g> <g> <path d="M64.242,193.168l5.264-54.999l7.649,56.235c0.611,4.485,3.423,8.364,7.496,10.339l48.583,23.547 c6.306,3.058,13.79,0.759,17.378-5.053c0.059-0.096,0.123-0.189,0.18-0.287c4-6.856,1.272-15.567-5.771-18.98l-42.063-20.387 l-6.927-50.925l17.04,41.411l13.404,6.497l6.527-42.921c1.355-8.912-4.771-17.236-13.683-18.591l-36.654-5.574 c-8.912-1.355-17.236,4.771-18.591,13.683L51.38,210.639c5.221-2.096,10.748-3.58,16.498-4.364 C65.688,202.645,63.847,197.297,64.242,193.168z"/> <circle cx="117.016" cy="78.145" r="27.28"/> <path d="M270.36,355.029h-0.8l-45.091-159.068l21.265-29.745c5.312-7.43,3.595-17.76-3.836-23.073 c-7.431-5.312-17.76-3.594-23.073,3.836c-49.227,68.858-39.197,54.79-51.182,71.718h-2.154c-0.293,3.04-1.118,6.08-2.527,8.985 c-1.592,3.286-3.842,6.142-6.534,8.46c34.909,0,22.93-0.085,30.167-0.085c8.393,0,11.103-2.186,13.236-5.724l35.347,124.696 h-94.152c0.773-1.786,1.239-3.739,1.308-5.801l2.537-76.312c0.09-2.699-0.507-5.378-1.734-7.783l-8.114-15.908H99.186 l13.642,26.745l-2.399,72.197c-0.081,2.44,0.406,4.761,1.316,6.861H73.36c0.149-0.347,0.292-0.698,0.419-1.059l24.16-69.047 c1.091-3.116,1.188-6.494,0.279-9.668l-7.457-26.03H77.375c-6.869,0-13.131,2.641-17.83,6.957l6.585,22.986l-15.138,43.262 v32.599H37.909v-79.42c0-21.762,17.705-39.467,39.466-39.467h42.315l-35.993-17.445h-6.322 c-31.381,0-56.911,25.531-56.911,56.912v79.42h-3.925C7.44,355.029,0,362.413,0,371.568c0,9.135,7.404,16.539,16.539,16.539 h26.366c-0.407,1.396-0.635,2.868-0.635,4.395c0,8.671,7.029,15.7,15.7,15.7c8.671,0,15.7-7.029,15.7-15.7 c0-1.527-0.229-2.999-0.635-4.395h140.829c-0.407,1.396-0.635,2.868-0.635,4.395c0,8.671,7.029,15.7,15.7,15.7 c8.671,0,15.7-7.029,15.7-15.7c0-1.527-0.229-2.999-0.635-4.395c6.53,0,10.761,0,26.367,0c9.134,0,16.539-7.404,16.539-16.539 C286.899,362.433,279.495,355.029,270.36,355.029z"/> <path d="M458.977,265.298l-11.269-96.717c-0.529-16.82-14.418-30.365-31.342-30.365c-1.815,0,1.555,0-71.279,0 c-16.925,0-30.814,13.546-31.342,30.366c-2.696,23.138-2.111,18.114-4.805,41.235c-0.904,7.755,5.068,14.61,12.87,14.781 l52.147,1.148c7.33,0.151,13.378-5.655,13.539-12.956c0.161-7.316-5.639-13.378-12.956-13.539 c-18.452-0.406-16.19-0.356-37.592-0.828c3.477-29.843,3.278-27.825,3.282-28.875c0.008-1.45,1.187-2.62,2.636-2.616 c1.449,0.004,2.622,1.18,2.622,2.63v18.982l15.093,0.332c0.044-0.17,5.819-22.428,5.819-22.428 c0.672-2.591,3.329-4.188,5.961-3.505c10.064,2.611,11.806,3.063,34.242,8.884c2.614,0.678,4.184,3.347,3.505,5.962 c-1.073,4.133-10.261,39.547-11.617,44.773c-0.727,2.802-3.303,4.631-6.081,4.525c-4.393,5.46-11.132,8.875-18.675,8.72 l-28.248-0.622l0.006,157.115c0,8.782,7.119,15.901,15.901,15.901c8.782,0,15.901-7.119,15.901-15.901V265.202h6.866v127.099 c0,8.782,7.119,15.901,15.901,15.901c8.782,0,15.901-7.119,15.901-15.901c0-115.841-0.28-110.255-0.288-222.737 c0-1.529,1.237-2.769,2.765-2.773c1.529-0.004,2.773,1.229,2.781,2.758c0.005,1.09-0.714-5.418,11.431,98.817 c0.845,7.255,7.408,12.474,14.696,11.628C454.618,279.147,459.824,272.567,458.977,265.298z"/> <circle cx="380.726" cy="101.999" r="27.463"/> </g> </g> </g> </g>
</svg>