<!DOCTYPE svg PUBLIC "-//W3C//DTD SVG 1.1//EN" "http://www.w3.org/Graphics/SVG/1.1/DTD/svg11.dtd">
<!-- Uploaded to: SVG Repo, www.svgrepo.com, Transformed by: SVG Repo Mixer Tools -->
<svg fill="#396f56" height="800px" width="800px" version="1.1" id="Layer_1" xmlns="http://www.w3.org/2000/svg" xmlns:xlink="http://www.w3.org/1999/xlink" viewBox="0 0 461.723 461.723" xml:space="preserve">
<g id="SVGRepo_bgCarrier" stroke-width="0"/>
<g id="SVGRepo_tracerCarrier" stroke-linecap="round" stroke-linejoin="round"/>
<g id="SVGRepo_iconCarrier"> <g> <g> <g> <path d="M196.875,60.483c-1.26,3.609-1.953,7.484-1.953,11.523c0,19.304,15.649,34.953,34.953,34.953 s34.953-15.649,34.953-34.953c0-4.039-0.693-7.914-1.953-11.523c-6.756-2.553-17.179-7.03-33-7.03 C214.091,53.453,203.639,57.927,196.875,60.483z"/> <path d="M284.516,244.636l-44.736,15.65c-9.46,3.309-19.573,1.633-27.355-3.924c-14.238,4.019-27.538,2.616-36.899-5.2 c-0.46-0.384-0.892-0.792-1.325-1.2l-11.239,58.027c-0.532,2.746,0.192,5.585,1.971,7.743c1.779,2.159,4.43,3.418,7.227,3.418 c3.628,0,7.997,0,12.869,0v122.335c0,11.177,9.062,20.238,20.238,20.238c11.177,0,20.238-9.061,20.238-20.238V319.15 c2.909,0,5.828,0,8.737,0v122.335c0,11.177,9.062,20.238,20.238,20.238c11.177,0,20.238-9.061,20.238-20.238V319.15 c4.872,0,9.242,0,12.869,0c2.799,0,5.451-1.251,7.231-3.411c1.78-2.16,2.499-5.002,1.967-7.75L284.516,244.636z"/> <path d="M198.479,49.187c10.116-3.823,20.756-5.734,31.395-5.734c10.64,0,21.279,1.911,31.395,5.734 c4.664-12.344,9.329-24.687,13.993-37.03c0.364-0.964,0.321-2.035-0.117-2.967c-0.438-0.932-1.235-1.648-2.208-1.983 C258.986,2.402,244.43,0,229.875,0s-29.111,2.402-43.062,7.206c-0.975,0.335-1.772,1.05-2.21,1.983 c-0.438,0.933-0.48,2.003-0.116,2.967C189.151,24.5,193.815,36.843,198.479,49.187z M219.124,17.425h5.75v-5.75h10v5.75h5.75v10 h-5.75v5.75h-10v-5.75h-5.75V17.425z"/> <circle cx="246.448" cy="166.227" r="23.762"/> <path d="M315.94,201.095c-5.238-13.848-13.056-34.721-17.854-48.682c-7.825-22.768-20.944-34.313-38.995-34.313 c-25.351,0-33.117,0-58.433,0c-18.051,0-31.17,11.545-38.995,34.313c-5.513,16.042-16.178,45.837-16.178,45.837 c-3.502,10.473,3.808,21.313,14.656,22.164c58.288,4.578,53.688,4.241,54.726,4.254c-1.951,3.923-2.435,8.543-0.899,12.903 c3.093,8.779,12.703,13.384,21.476,10.315l70.397-24.627C314.363,220.279,319.596,210.764,315.94,201.095z M281.717,182.049 c-1.479,5.917-3.407,11.779-5.327,15.779l-45.525,15.926c0.565-1.503,0.905-3.025,1.03-4.622 c0.717-9.14-6.125-17.398-15.493-18.134l-44.344-3.482c4.369-9.19,10.196-18.056,17.46-26.372 c10.203-11.684,21.879-20.578,33.502-26.179c15.934-7.677,35.66-10.706,49.101,0.517 C285.262,146.454,285.957,165.079,281.717,182.049z"/> </g> </g> </g> </g>
</svg>