<!DOCTYPE svg PUBLIC "-//W3C//DTD SVG 1.1//EN" "http://www.w3.org/Graphics/SVG/1.1/DTD/svg11.dtd">
<!-- Uploaded to: SVG Repo, www.svgrepo.com, Transformed by: SVG Repo Mixer Tools -->
<svg fill="#396f56" height="800px" width="800px" version="1.1" id="Layer_1" xmlns="http://www.w3.org/2000/svg" xmlns:xlink="http://www.w3.org/1999/xlink" viewBox="0 0 461.479 461.479" xml:space="preserve">
<g id="SVGRepo_bgCarrier" stroke-width="0"/>
<g id="SVGRepo_tracerCarrier" stroke-linecap="round" stroke-linejoin="round"/>
<g id="SVGRepo_iconCarrier"> <g> <g> <g> <polygon points="176.13,269.017 153.73,272.493 153.73,299.368 184.191,299.368 "/> <path d="M66.283,226.6l1.957,0.29c5.369-7.314,13.259-12.107,22.226-13.497l59.144-9.178c1.217-3.415,2.61-7.169,4.121-11.123 v10.483l42.225-6.553c5.613-0.871,11.317-0.334,16.672,1.582l22.511-3.233v-15.478c10.989,16.385,12.064,17.987,19.292,28.765 l-47.337,6.799c-8.402,1.206-14.235,8.996-13.028,17.397c1.211,8.423,9.019,14.236,17.398,13.028l69.548-9.923 c5.585-0.797,10.375-4.393,12.699-9.533c2.325-5.14,1.867-11.116-1.227-15.833c-7.182-10.947-19.608-29.614-43.783-65.66 c-2.854-4.255-7.641-6.808-12.764-6.808c-4.449,0-58.545,0-82.673,0c-6.132,0-11.677,3.645-14.109,9.274 c-6.588,15.249-16.309,38.68-21.553,55.729l-46.816-6.934c-8.394-1.249-16.211,4.554-17.455,12.951 C52.088,217.54,57.886,225.355,66.283,226.6z"/> <circle cx="194.601" cy="96.119" r="31.853"/> <path d="M92.902,229.1c-9.909,1.537-16.695,10.816-15.157,20.725c1.537,9.905,10.81,16.701,20.725,15.156l87.469-13.572 c-3.975-4.457-6.714-10.063-7.61-16.294c-0.997-6.941,0.335-13.856,3.748-19.853L92.902,229.1z"/> <path d="M219.903,278.032c3.513-2.363,7.204-4.385,11.027-6.067l-3.279-12.347l-13.922,2c-9.418,1.358-18.462-1.668-25.126-7.56 l11.653,43.876C205.384,290.102,212.021,283.335,219.903,278.032z"/> <path d="M259.326,282.704c-19.935,0-37.865,10.94-47.208,27.838c80.688,7.065,120.864,10.297,125.708,11.852 c0.051,0.016,0.037,0.09-0.016,0.09H188.137c-8.146,0-15.156,6.26-15.539,14.397c-0.41,8.688,6.513,15.861,15.112,15.861 c165.351,0,161.221-0.107,161.147-0.109c0.039,0,0.077,0,0.116,0c10.527,0,19.092-8.51,19.146-19.047 c0.128-24.901,0.128-21.777,0.075-23.241c-0.549-15.127-12.875-27.153-28.012-27.23l-80.578-0.411 C259.512,282.704,259.417,282.704,259.326,282.704z"/> <path d="M29.913,352.379c5.524,0,126.209,0,129.872,0c-2.11-3.617-3.479-7.743-3.871-12.19 c-0.829-9.41,2.887-18.169,9.326-24.122c-10.083,0-130.653,0-135.327,0c-10.028,0-18.156,8.129-18.156,18.156 C11.757,344.249,19.885,352.379,29.913,352.379z"/> <path d="M445.759,365.775c-4.732,0-425.953,0-430.039,0c-8.682,0-15.72,7.038-15.72,15.719c0,8.681,7.038,15.719,15.72,15.719 h430.039c8.682,0,15.72-7.038,15.72-15.719C461.479,372.814,454.44,365.775,445.759,365.775z"/> <path d="M388.814,351.382h55.716c3.136,0,5.678-2.542,5.678-5.678c0-17.413,0.05-16.531-0.078-17.331 c-0.432-2.707-2.771-4.778-5.6-4.778h-10.118c7.726-5.797,12.751-15.008,12.815-25.41c0.109-17.672-14.127-32.086-31.799-32.195 c-0.068,0-0.135,0-0.202,0c-17.578,0-31.884,14.196-31.993,31.799c-0.065,10.546,4.981,19.929,12.815,25.807h-7.234 c-3.136,0-5.678,2.542-5.678,5.678c0,3.544,0,13.041,0,16.431C383.136,348.84,385.678,351.382,388.814,351.382z"/> </g> </g> </g> </g>
</svg>