<!DOCTYPE svg PUBLIC "-//W3C//DTD SVG 1.1//EN" "http://www.w3.org/Graphics/SVG/1.1/DTD/svg11.dtd">
<!-- Uploaded to: SVG Repo, www.svgrepo.com, Transformed by: SVG Repo Mixer Tools -->
<svg fill="#396f56" height="800px" width="800px" version="1.1" id="Layer_1" xmlns="http://www.w3.org/2000/svg" xmlns:xlink="http://www.w3.org/1999/xlink" viewBox="0 0 460.899 460.899" xml:space="preserve">
<g id="SVGRepo_bgCarrier" stroke-width="0"/>
<g id="SVGRepo_tracerCarrier" stroke-linecap="round" stroke-linejoin="round"/>
<g id="SVGRepo_iconCarrier"> <g> <g> <g> <path d="M57.225,365.475l-29.609-30.017l-5.843,2.862c-9.781,4.859-13.872,16.655-9.2,26.527l40.025,84.574 c4.736,10.008,16.687,14.28,26.695,9.545c10.007-4.736,14.281-16.687,9.545-26.695L57.225,365.475z"/> <path d="M254.391,242.209c-2.634-4.739-4.004-9.837-4.235-14.909v-0.001l-74.322-22.907c-8.734-2.692-17.981-4.169-27.12-4.295 c-16.552-0.228-46.352-0.552-80.895-0.524c-21.383,0-38.923,17.15-39.518,38.418c-0.666,6.524-5.703,55.899-6.437,63.094 c-0.505,4.947,1.221,9.862,4.707,13.408l39.644,40.317c6.469,6.58,17.048,6.667,23.624,0.199 c6.578-6.469,6.667-17.045,0.199-23.624L55.9,296.664c6.185-60.626,5.792-56.441,5.797-57.589 c0.01-1.878,1.537-3.393,3.415-3.388c1.877,0.005,3.396,1.529,3.396,3.406v51.881l30.786,31.309 c5.872,5.971,8.695,13.796,8.502,21.555h16.933l43.547,21.636l-31.612,66.797c-4.736,10.007-0.463,21.959,9.545,26.695 c10.002,4.735,21.957,0.465,26.695-9.545l40.025-84.574c4.673-9.872,0.581-21.668-9.2-26.527l-46.735-23.219 c0-16.201,0-64.484,0-81.554l116.764,35.989c8.837,2.719,18.173-2.242,20.885-11.043c0.062-0.2,0.099-0.401,0.153-0.602 C279.6,262.993,262.458,256.723,254.391,242.209z"/> <path d="M112.75,188.537c19.1,0,34.622-15.492,34.622-34.622c0-19.121-15.501-34.622-34.622-34.622 c-19.121,0-34.622,15.501-34.622,34.622C78.128,173.064,93.664,188.537,112.75,188.537z"/> <circle cx="340.531" cy="37.578" r="37.578"/> <path d="M449.472,433.184l-28.084-102.427l11.52-75.103l-8.685-140.86c-1.244-15.137-14.524-26.4-29.661-25.155l-48.877,4.018 c-15.137,1.244-26.4,14.524-25.155,29.661l0.296,3.595l-26.285,39.381l-62.575,36.76l22.101,6.812 c2.965-5.614,7.53-10.464,13.493-13.779c13.705-7.618,51.523-28.638,66.459-36.94l21.361-31.301l-15.413,45.904l-64.803,36.019 c-8.815,4.899-11.99,16.018-7.09,24.834c4.9,8.815,16.019,11.99,24.834,7.09l70.99-39.458c3.98-2.212,6.99-5.831,8.44-10.149 l17.666-52.613l-2.827,57.595c-0.58,11.816-9.809,15.591-15.674,18.848l-41.465,23.048l1.92,23.359l-21.941,59.823 c-1.418,3.868-1.719,8.056-0.865,12.086l23.144,109.285c2.507,11.838,14.135,19.405,25.979,16.899 c11.84-2.507,19.406-14.139,16.899-25.979l-21.838-103.118l26.141-71.275l8.525-0.701l-10.641,69.382 c-0.466,3.043-0.286,6.148,0.527,9.116l29.318,106.929c3.199,11.684,15.268,18.544,26.925,15.342 C445.804,456.913,452.671,444.856,449.472,433.184z"/> </g> </g> </g> </g>
</svg>